<svg xmlns="http://www.w3.org/2000/svg" width="35.969" height="28.97" viewBox="0 0 35.969 28.97">
  <defs>
    <style>
      .cls-1 {
        fill: #e9e9e9;
        fill-rule: evenodd;
      }
    </style>
  </defs>
  <path id="_" data-name="“" class="cls-1" d="M171.845,1031.99a7.309,7.309,0,0,0,7.421-7.36,7.285,7.285,0,0,0-11.727-5.84,7.24,7.24,0,0,1-.34-2.41c0-4.49,4.079-9.32,8.838-11.28l-1.076-2.08c-8.215,3.82-11.954,10.27-11.954,17.74a14.554,14.554,0,0,0,1.982,7.58A7.527,7.527,0,0,0,171.845,1031.99Zm19.715,0a7.274,7.274,0,0,0,7.422-7.36,7.073,7.073,0,0,0-7.422-7.35,7.189,7.189,0,0,0-4.305,1.51,7.24,7.24,0,0,1-.34-2.41c0-4.49,4.079-9.32,8.838-11.28l-1.077-2.08c-8.215,3.82-11.954,10.27-11.954,17.74a14.556,14.556,0,0,0,1.983,7.58A7.591,7.591,0,0,0,191.56,1031.99Z" transform="translate(-163 -1003.03)"/>
</svg>
